{"title":"Assumed.Killer.2013.HDRip.XviD.AC3-iFT","uid":10601787,"size":1328495784,"categoryP":"video","categoryS":"movies","magnet":"?xt=urn:btih:1866bf1a162afdb7a1b0a69ba0bb4b3a4f7cae88&amp;dn=Assumed.Killer.2013.HDRip.XviD.AC3-iFT&amp;tr=udp%3A%2F%2Ftracker.openbittorrent.com%3A80&amp;tr=udp%3A%2F%2Fopen.demonii.com%3A1337&amp;tr=udp%3A%2F%2Ftracker.coppersurfer.tk%3A6969&amp;tr=udp%3A%2F%2Fexodus.desync.com%3A6969","seeders":1,"leechers":0,"uploader":"xxxlavalxxx","files":-1,"time":1405935621,"description":"[IMG]http://i.imgur.com/ITAgIaf.jpg[/IMG]\n\n &lt;a href=&quot;\nhttp://www.imdb.com/title/tt2321195/&quot; rel=&quot;nofollow&quot; target=&quot;_NEW&quot;&gt;\nhttp://www.imdb.com/title/tt2321195/&lt;/a&gt;\n\n\nAward winning news reporter Daria Valdez Morrow (Barbie Castro) was investigating a series of murders caused by a local serial killer when she gets into a car accident and suffers from Retrograde Amnesia. When she comes to, she begins to suspect that her husband, Sam Morrow (Casper Van Dien) is the serial killer she had been reporting about and embarks on a journey to discover the truth.\n\nDirector: Bernard Salzmann\nWriter: Bernard Salzmann\nStars: Casper Van Dien, Barbie Castro, Armand Assante\nGenres: Drama | Mystery | Thriller\nCountry: USA\nLanguage: English\n\n\n\nFormat                                   : AVI\nFormat/Info                              : Audio Video Interleave\nFile size                                : 1.24 GiB\nDuration                                 : 1h 26mn\nOverall bit rate                         : 2 038 Kbps\nWriting library                          : VirtualDub build 35491/release\n\nVideo\nID                                       : 0\nFormat                                   : MPEG-4 Visual\nFormat profile                           : Advanced Simple@L5\nFormat settings, BVOP                    : 2\nFormat settings, QPel                    : No\nFormat settings, GMC                     : No warppoints\nFormat settings, Matrix                  : Default (H.263)\nMuxing mode                              : Packed bitstream\nCodec ID                                 : XVID\nCodec ID/Hint                            : XviD\nDuration                                 : 1h 26mn\nBit rate                                 : 1 644 Kbps\nWidth                                    : 720 pixels\nHeight                                   : 400 pixels\nDisplay aspect ratio                     : 16:9\nFrame rate                               : 23.976 fps\nColor space                              : YUV\nChroma subsampling                       : 4:2:0\nBit depth                                : 8 bits\nScan type                                : Progressive\nCompression mode                         : Lossy\nBits/(Pixel*Frame)                       : 0.238\nStream size                              : 1 022 MiB (81%)\nWriting library                          : XviD 64\n\nAudio\nID                                       : 1\nFormat                                   : AC-3\nFormat/Info                              : Audio Coding 3\nMode extension                           : CM (complete main)\nCodec ID                                 : 2000\nDuration                                 : 1h 26mn\nBit rate mode                            : Constant\nBit rate                                 : 384 Kbps\nChannel(s)                               : 2 channels\nChannel positions                        : Front: L R\nSampling rate                            : 48.0 KHz\nBit depth                                : 16 bits\nCompression mode                         : Lossy\nStream size                              : 239 MiB (19%)\nAlignment                                : Aligned on interleaves\nInterleave, duration                     : 42 ms (1.00 video frame)\nInterleave, preload duration             : 512 ms\n\n\nscreens\n &lt;a href=&quot;\nhttp://i.imgur.com/NIXTajM.jpg&quot; rel=&quot;nofollow&quot; target=&quot;_NEW&quot;&gt;\nhttp://i.imgur.com/NIXTajM.jpg&lt;/a&gt; &lt;a href=&quot;\nhttp://i.imgur.com/Jr9DIf2.jpg&quot; rel=&quot;nofollow&quot; target=&quot;_NEW&quot;&gt;\nhttp://i.imgur.com/Jr9DIf2.jpg&lt;/a&gt; &lt;a href=&quot;\nhttp://i.imgur.com/2nyoRI5.jpg&quot; rel=&quot;nofollow&quot; target=&quot;_NEW&quot;&gt;\nhttp://i.imgur.com/2nyoRI5.jpg&lt;/a&gt; &lt;a href=&quot;\nhttp://i.imgur.com/2cZtijl.jpg&quot; rel=&quot;nofollow&quot; target=&quot;_NEW&quot;&gt;\nhttp://i.imgur.com/2cZtijl.jpg&lt;/a&gt; &lt;a href=&quot;\nhttp://i.imgur.com/PJ2EQsn.jpg&quot; rel=&quot;nofollow&quot; target=&quot;_NEW&quot;&gt;\nhttp://i.imgur.com/PJ2EQsn.jpg&lt;/a&gt;","torrent":{"xt":"urn:btih:1866bf1a162afdb7a1b0a69ba0bb4b3a4f7cae88","amp;dn":"Assumed.Killer.2013.HDRip.XviD.AC3-iFT","amp;tr":["udp%3A%2F%2Ftracker.openbittorrent.com%3A80","udp%3A%2F%2Fopen.demonii.com%3A1337","udp%3A%2F%2Ftracker.coppersurfer.tk%3A6969","udp%3A%2F%2Fexodus.desync.com%3A6969"],"infoHash":"1866bf1a162afdb7a1b0a69ba0bb4b3a4f7cae88","infoHashBuffer":{"type":"Buffer","data":[24,102,191,26,22,42,253,183,161,176,166,155,160,187,75,58,79,124,174,136]},"announce":[],"urlList":[]}}